# xmcd
#
# Track frame offsets:
#	150
#	14356
#	31185
#	48029
#	64329
#	82870
#	99515
#	115612
#	132319
#	149918
#	163305
#	175496
#
# Disc length: 2573 seconds
#
# Revision: 1
# Processed by: cddbd v1.5.2PL0 Copyright (c) Steve Scherf et al.
# Submitted via: audiograbber 1.83.01
#
DISCID=a10a0b0c
DTITLE=Fiona Fields - Good To Go
DYEAR=2009
DGENRE=Country
TTITLE0=Dance Sitting Down
TTITLE1=Dirt
TTITLE2=Itty Bitta
TTITLE3=Back Away
TTITLE4=The Final Straw
TTITLE5=I'm A Fan
TTITLE6=Hurricane
TTITLE7=Underneath That Hat
TTITLE8=Little Sister
TTITLE9=Crack Of Noon
TTITLE10=Good Night
TTITLE11=Right From The Start
EXTD=
EXTT0=
EXTT1=
EXTT2=
EXTT3=
EXTT4=
EXTT5=
EXTT6=
EXTT7=
EXTT8=
EXTT9=
EXTT10=
EXTT11=
PLAYORDER=
